<?xml version="1.0" encoding="utf-8"?>
<!-- Generator: Adobe Illustrator 27.3.1, SVG Export Plug-In . SVG Version: 6.00 Build 0)  -->
<svg version="1.1" id="Слой_1" xmlns="http://www.w3.org/2000/svg" xmlns:xlink="http://www.w3.org/1999/xlink" x="0px" y="0px"
	 viewBox="0 0 600 200" style="enable-background:new 0 0 600 200;" xml:space="preserve">
<style type="text/css">
	.st0{fill:#FFFFFF;stroke:#000000;stroke-width:3;stroke-miterlimit:10;}
	.st1{stroke:#000000;stroke-miterlimit:10;}
</style>
<rect x="60" y="24" class="st0" width="144" height="155"/>
<rect x="82.5" y="40.5" class="st1" width="103" height="11"/>
<rect x="82.5" y="103.5" class="st1" width="70" height="6"/>
<rect x="82.5" y="154.5" class="st1" width="95" height="10"/>
<rect x="82.5" y="45.5" class="st1" width="8" height="118"/>
<g>
	<path d="M226.56,58.23c6.78-1.02,14.85-1.79,23.68-1.79c16,0,27.39,3.71,34.95,10.75c7.68,7.04,12.16,17.02,12.16,30.98
		c0,14.08-4.35,25.6-12.42,33.54c-8.06,8.06-21.38,12.42-38.15,12.42c-7.94,0-14.59-0.38-20.23-1.02V58.23z M237.7,134.52
		c2.82,0.51,6.91,0.64,11.26,0.64c23.81,0,36.74-13.31,36.74-36.61c0.13-20.35-11.39-33.28-34.95-33.28
		c-5.76,0-10.11,0.51-13.06,1.15V134.52z"/>
	<path d="M404.61,139.51c-4.99,1.79-14.85,4.74-26.5,4.74c-13.06,0-23.81-3.33-32.26-11.39c-7.42-7.17-12.03-18.69-12.03-32.13
		c0.13-25.73,17.79-44.55,46.72-44.55c9.98,0,17.79,2.18,21.5,3.97l-2.69,9.09c-4.61-2.05-10.37-3.71-19.07-3.71
		c-20.99,0-34.69,13.06-34.69,34.69c0,21.89,13.19,34.82,33.28,34.82c7.3,0,12.29-1.02,14.85-2.3V107h-17.54v-8.96h28.42V139.51z"/>
	<path d="M493.44,102.9H459.9v31.1h37.38v9.34h-48.51V57.08h46.59v9.34H459.9v27.27h33.54V102.9z"/>
</g>
<rect x="174.5" y="40.5" class="st1" width="11" height="20"/>
<rect x="170.5" y="141.5" class="st1" width="14" height="23"/>
</svg>
