<?xml version="1.0" encoding="UTF-8"?>
<svg id="_Слой_1" data-name="Слой 1" xmlns="http://www.w3.org/2000/svg" viewBox="0 0 414.15 138.45">
  <g>
    <path d="m0,110.59V13.09h95.72v10.16H12.19v32.5h80.04v10.16H12.19v34.53h85.31v10.16H0Z"/>
    <path d="m152.41,111.98c-8.17,0-15.11-.41-20.82-1.24s-10.33-2.52-13.84-5.08c-3.51-2.56-6.07-6.4-7.68-11.52-1.61-5.12-2.41-11.95-2.41-20.5s.8-14.94,2.41-19.93c1.61-4.99,4.17-8.76,7.68-11.3,3.51-2.54,8.12-4.23,13.84-5.08,5.71-.85,12.65-1.27,20.82-1.27s14.44.59,19.84,1.78c5.4,1.19,9.64,3.83,12.73,7.93V13.09h12.19v97.5h-12.19v-8.38c-3.09,4.15-7.33,6.81-12.73,8-5.4,1.18-12.01,1.78-19.84,1.78Zm32.56-38.34c0-6.05-.42-10.9-1.27-14.54-.85-3.64-2.41-6.38-4.7-8.22s-5.56-3.08-9.84-3.71c-4.27-.63-9.86-.95-16.76-.95-7.53,0-13.5.32-17.9.95-4.4.63-7.64,1.87-9.71,3.71-2.07,1.84-3.42,4.58-4.03,8.22-.61,3.64-.92,8.48-.92,14.54s.31,11.28.92,15.04c.61,3.77,1.96,6.59,4.03,8.47,2.07,1.88,5.31,3.13,9.71,3.75,4.4.61,10.37.92,17.9.92,6.9,0,12.48-.31,16.76-.92,4.27-.61,7.55-1.86,9.84-3.75s3.85-4.71,4.7-8.47c.85-3.77,1.27-8.78,1.27-15.04Z"/>
    <path d="m258.54,138.45c-6.47,0-12.37-.16-17.68-.47-5.31-.32-9.87-1.08-13.68-2.29-3.81-1.21-6.75-3.11-8.82-5.71-2.07-2.6-3.11-6.17-3.11-10.7h12.19c0,2.96,1.15,5.08,3.46,6.35,2.31,1.27,5.76,2.03,10.38,2.29,4.61.25,10.37.38,17.27.38,5.12,0,9.5-.16,13.14-.47,3.64-.32,6.61-1.24,8.92-2.76s4-4.07,5.08-7.65c1.08-3.58,1.62-8.6,1.62-15.08v-1.71c-2.96,3.81-7.04,6.33-12.22,7.55-5.18,1.23-11.61,1.84-19.27,1.84s-14.66-.45-20.25-1.36c-5.59-.91-10.12-2.63-13.62-5.17-3.49-2.54-6.04-6.22-7.65-11.04-1.61-4.82-2.41-11.13-2.41-18.92,0-8.29.8-14.94,2.41-19.93,1.61-4.99,4.16-8.75,7.65-11.27,3.49-2.52,8.03-4.19,13.62-5.01s12.33-1.24,20.25-1.24,14.08.56,19.27,1.68c5.18,1.12,9.26,3.61,12.22,7.46v-7.74h12.19v65.38c-.17,8.04-1.19,14.44-3.05,19.2-1.86,4.76-4.52,8.32-7.97,10.66-3.45,2.35-7.68,3.89-12.7,4.63-5.01.74-10.76,1.11-17.23,1.11Zm28.75-64.94c0-6.05-.37-10.89-1.11-14.5s-2.18-6.35-4.32-8.19-5.29-3.07-9.46-3.68c-4.17-.61-9.7-.92-16.6-.92-7.28,0-13.04.31-17.3.92-4.25.61-7.42,1.84-9.49,3.68-2.07,1.84-3.42,4.57-4.03,8.19s-.92,8.45-.92,14.5c0,5.5.31,9.99.92,13.46s1.95,6.14,4,8c2.05,1.86,5.21,3.14,9.49,3.84,4.27.7,10.05,1.05,17.33,1.05,6.9,0,12.43-.35,16.6-1.05,4.17-.7,7.32-1.98,9.46-3.84s3.58-4.53,4.32-8,1.11-7.96,1.11-13.46Z"/>
    <path d="m399.71,88.88c0,5.46-.82,9.75-2.44,12.88-1.63,3.13-4.12,5.42-7.46,6.86-3.34,1.44-7.61,2.36-12.79,2.76-5.18.4-11.35.6-18.5.6-8.17,0-15.1-.41-20.79-1.24s-10.28-2.52-13.77-5.08c-3.49-2.56-6.03-6.4-7.62-11.52-1.59-5.12-2.38-11.95-2.38-20.5s.77-14.94,2.32-19.93c1.54-4.99,4.05-8.76,7.52-11.3,3.47-2.54,8.03-4.23,13.68-5.08,5.65-.85,12.56-1.27,20.73-1.27,9.35,0,17.1.66,23.23,1.97,6.14,1.31,10.72,3.81,13.74,7.49,3.02,3.68,4.54,9.08,4.54,16.19v15.68h-73.51c.04,5.42.42,9.75,1.14,13.01.72,3.26,2.16,5.71,4.32,7.36s5.38,2.74,9.68,3.27c4.29.53,10.02.79,17.17.79,6.43,0,11.63-.13,15.58-.38,3.96-.25,6.96-.81,9.01-1.68,2.05-.87,3.44-2.17,4.16-3.9.72-1.74,1.08-4.06,1.08-6.98h11.36Zm-41.51-42.66c-6.9,0-12.45.25-16.66.76s-7.42,1.49-9.62,2.95c-2.2,1.46-3.69,3.63-4.48,6.51-.78,2.88-1.2,6.67-1.24,11.36h61.83v-6.09c0-3.05-.35-5.58-1.05-7.59-.7-2.01-2.06-3.6-4.09-4.76-2.03-1.16-5.03-1.98-8.98-2.44-3.96-.47-9.19-.7-15.71-.7Z"/>
  </g>
  <path d="m395.4,31.88v-13.59h-13.12v-4.69h13.12V0h5.62v13.59h13.12v4.69h-13.12v13.59h-5.62Z"/>
</svg>